<?xml version="1.0" encoding="UTF-8"?>
<svg width="1000px" height="1000px" viewBox="0 0 1000 1000" version="1.1" xmlns="http://www.w3.org/2000/svg" xmlns:xlink="http://www.w3.org/1999/xlink">
    <!-- Generator: Sketch 51.1 (57501) - http://www.bohemiancoding.com/sketch -->
    <title>sprites</title>
    <desc>Created with Sketch.</desc>
    <defs></defs>
    <g id="sprites" stroke="none" stroke-width="1" fill="none" fill-rule="evenodd">
        <g id="home" fill="#000000" fill-rule="nonzero">
            <path d="M1.3,5.40214424 L1.3,12.0909091 C1.3,12.442363 1.59101491,12.7272727 1.95,12.7272727 L11.05,12.7272727 C11.4089851,12.7272727 11.7,12.442363 11.7,12.0909091 L11.7,5.40214424 L6.5,1.44254828 L1.3,5.40214424 Z M0.250938601,4.58859404 L6.1009386,0.134048589 C6.33566042,-0.044682863 6.66433958,-0.044682863 6.8990614,0.134048589 L12.7490614,4.58859404 C12.9073927,4.70915708 13,4.89453336 13,5.09090909 L13,12.0909091 C13,13.1452709 12.1269553,14 11.05,14 L1.95,14 C0.873044738,14 0,13.1452709 0,12.0909091 L0,5.09090909 C0,4.89453336 0.0926073485,4.70915708 0.250938601,4.58859404 Z" id="Shape"></path>
            <path d="M5.25,7.33333333 L5.25,13.3333333 C5.25,13.7015232 4.97017797,14 4.625,14 C4.27982203,14 4,13.7015232 4,13.3333333 L4,6.66666667 C4,6.29847683 4.27982203,6 4.625,6 L8.375,6 C8.72017797,6 9,6.29847683 9,6.66666667 L9,13.3333333 C9,13.7015232 8.72017797,14 8.375,14 C8.02982203,14 7.75,13.7015232 7.75,13.3333333 L7.75,7.33333333 L5.25,7.33333333 Z" id="Shape"></path>
        </g>
        <g id="search" opacity="0.5" transform="translate(100.000000, 0.000000)" fill="#000000" fill-rule="nonzero">
            <path d="M6.5,13 C2.91014913,13 0,10.0898509 0,6.5 C0,2.91014913 2.91014913,0 6.5,0 C10.0898509,0 13,2.91014913 13,6.5 C13,10.0898509 10.0898509,13 6.5,13 Z M6.5,11.1428571 C9.0641792,11.1428571 11.1428571,9.0641792 11.1428571,6.5 C11.1428571,3.9358208 9.0641792,1.85714286 6.5,1.85714286 C3.9358208,1.85714286 1.85714286,3.9358208 1.85714286,6.5 C1.85714286,9.0641792 3.9358208,11.1428571 6.5,11.1428571 Z" id="Oval"></path>
            <path d="M13.7071068,13.2928932 C14.0976311,13.6834175 14.0976311,14.3165825 13.7071068,14.7071068 C13.3165825,15.0976311 12.6834175,15.0976311 12.2928932,14.7071068 L9.29289322,11.7071068 C8.90236893,11.3165825 8.90236893,10.6834175 9.29289322,10.2928932 C9.68341751,9.90236893 10.3165825,9.90236893 10.7071068,10.2928932 L13.7071068,13.2928932 Z" id="Shape"></path>
        </g>
        <rect id="Rectangle-10" fill="#3B5998" x="0" y="200" width="32" height="32"></rect>
        <path d="M19.2539062,213.46875 L19.0078125,215.875 L17.0664062,215.875 L17.0664062,222.875 L14.1953125,222.875 L14.1953125,215.875 L12.7460938,215.875 L12.7460938,213.46875 L14.1679688,213.46875 L14.1679688,212.019531 C14.1679688,211.527341 14.2180985,211.085288 14.3183594,210.693359 C14.4186203,210.30143 14.5963529,209.973309 14.8515625,209.708984 C15.1067721,209.44466 15.4303366,209.239584 15.8222656,209.09375 C16.2141947,208.947916 16.70182,208.875 17.2851562,208.875 L19.2265625,208.875 L19.2265625,211.28125 L18.0234375,211.28125 C17.7864571,211.28125 17.6041673,211.304036 17.4765625,211.349609 C17.3489577,211.395183 17.2532555,211.458984 17.1894531,211.541016 C17.1256507,211.623047 17.0846355,211.723307 17.0664062,211.841797 C17.048177,211.960287 17.0390625,212.101562 17.0390625,212.265625 L17.0390625,213.46875 L19.2539062,213.46875 Z" id="" fill="#FFFFFF"></path>
        <g id="Group" transform="translate(100.000000, 200.000000)">
            <rect id="Rectangle-9" fill="#018FE5" x="0" y="0" width="32" height="32"></rect>
            <path d="M11.296906,20.0664379 C11.296906,20.7270664 10.7928626,21.0573757 9.78476057,21.0573757 L5.4992761,21.0573757 C4.4997537,21.0573757 4,20.701328 4,19.9892219 C4,19.6503281 4.19732764,19.2192101 4.59198885,18.695855 L8.4141777,13.6253418 L5.66014263,13.6253418 C4.64775085,13.6253418 4.14156255,13.303612 4.14156255,12.6601426 C4.14156255,12.0123835 4.64775085,11.6885088 5.66014263,11.6885088 L9.28285698,11.6885088 C10.5054488,11.6885088 11.1167355,12.035977 11.1167355,12.7309239 C11.1167355,13.0397892 10.9086835,13.4751969 10.4925733,14.0371602 L6.76690439,19.0819347 L9.78476057,19.0819347 C10.7928626,19.0819347 11.296906,19.4100991 11.296906,20.0664379 Z M15.6248592,20.4267789 C15.1958797,20.9544238 14.6167659,21.2182423 13.8875007,21.2182423 C12.935166,21.2182423 12.1587246,20.8364562 11.5581533,20.0728725 C11.0090594,19.369346 10.7345166,18.5285587 10.7345166,17.5504853 C10.7345166,16.5681221 11.0240735,15.723045 11.6031959,15.0152287 C12.2209265,14.2559349 13.0080922,13.8762936 13.9647166,13.8762936 C14.6639533,13.8762936 15.2173286,14.1229532 15.6248592,14.6162797 C15.8650878,14.1744307 16.1953971,13.9535096 16.6157971,13.9535096 C17.2978746,13.9535096 17.6389082,14.4554081 17.6389082,15.4592203 L17.6389082,19.6353156 C17.6389082,20.6434175 17.2978746,21.147461 16.6157971,21.147461 C16.1696583,21.147461 15.839349,20.907236 15.6248592,20.4267789 Z M12.8836935,17.5247466 C12.8836935,17.9837548 12.9887919,18.3698306 13.1989919,18.6829857 C13.4435103,19.0433285 13.7866888,19.2234972 14.2285377,19.2234972 C14.6618071,19.2234972 15.0006959,19.0411836 15.2452142,18.676551 C15.4554142,18.3591061 15.5605126,17.9751752 15.5605126,17.5247466 C15.5605126,17.0828977 15.4511245,16.7054013 15.2323449,16.3922462 C14.9878265,16.040483 14.6532275,15.864604 14.2285377,15.864604 C13.7952684,15.864604 13.4563796,16.0383381 13.2118612,16.3858116 C12.9930816,16.6946769 12.8836935,17.0743181 12.8836935,17.5247466 Z M18.4857097,12.5185801 C18.4857097,11.5061883 18.8331779,11 19.5281248,11 C20.2102023,11 20.551236,11.5061883 20.551236,12.5185801 L20.551236,19.6353156 C20.551236,20.6434175 20.2102023,21.147461 19.5281248,21.147461 C18.8331779,21.147461 18.4857097,20.6434175 18.4857097,19.6353156 L18.4857097,12.5185801 Z M23.1225267,17.5247466 C23.1225267,18.0009139 23.22977,18.4020038 23.4442598,18.7280283 C23.6887781,19.1055303 24.0383912,19.2942785 24.4931096,19.2942785 C24.9435381,19.2942785 25.2931512,19.1055303 25.5419594,18.7280283 C25.7564491,18.4020038 25.8636924,18.0009139 25.8636924,17.5247466 C25.8636924,17.0657385 25.7521594,16.6732281 25.52909,16.3472036 C25.2759921,15.9739914 24.9306687,15.7873881 24.4931096,15.7873881 C24.0469708,15.7873881 23.6995026,15.9718465 23.4506944,16.3407689 C23.2319148,16.6667934 23.1225267,17.0614487 23.1225267,17.5247466 Z M20.9733498,17.5504853 C20.9733498,16.4909057 21.2929348,15.6136557 21.9321143,14.9187088 C22.5884531,14.1980231 23.4421096,13.8376857 24.4931096,13.8376857 C25.5483993,13.8376857 26.4020558,14.1958782 27.0541048,14.9122741 C27.6847047,15.607221 28,16.4866159 28,17.5504853 C28,18.6143546 27.6847047,19.4937495 27.0541048,20.1886964 C26.4020558,20.9093821 25.5483993,21.2697195 24.4931096,21.2697195 C23.4421096,21.2697195 22.5884531,20.9093821 21.9321143,20.1886964 C21.2929348,19.4894597 20.9733498,18.6100648 20.9733498,17.5504853 Z" id="Zalo" fill="#FFFFFF"></path>
        </g>
        <rect id="Rectangle-6" fill="#E79919" x="200" y="200" width="32" height="32"></rect>
        <path d="M209,210.515625 L223,210.515625 L223,221.234375 L209,221.234375 L209,210.515625 Z M216,216.96875 L221.6875,211.335938 L210.3125,211.335938 L216,216.96875 Z M213.730469,215.875 L209.820312,212.019531 L209.820312,219.730469 L213.730469,215.875 Z M214.332031,216.476562 L210.339844,220.414062 L221.578125,220.414062 L217.640625,216.503906 L216,218.117188 L214.332031,216.476562 Z M218.214844,215.929688 L222.179688,219.8125 L222.179688,212.019531 L218.214844,215.929688 Z" id="" fill="#FFFFFF"></path>
        <rect id="Rectangle-4" fill="#AAAAAA" x="300" y="200" width="32" height="32"></rect>
        <path d="M323,213.824219 L323,220.414062 L320.539062,220.414062 L320.539062,222.957031 L311.460938,222.957031 L311.460938,220.414062 L309,220.414062 L309,213.824219 L311.460938,213.824219 L311.460938,208.875 L316.820312,208.875 L320.511719,212.320312 L320.511719,213.824219 L323,213.824219 Z M317.230469,210.378906 L317.230469,212.15625 L319.144531,212.15625 L317.230469,210.378906 Z M312.28125,209.695312 L312.28125,213.824219 L319.691406,213.824219 L319.691406,213.003906 L316.410156,213.003906 L316.410156,209.695312 L312.28125,209.695312 Z M319.71875,222.136719 L319.71875,218.007812 L312.28125,218.007812 L312.28125,222.136719 L319.71875,222.136719 Z M322.179688,219.59375 L322.179688,214.644531 L309.820312,214.644531 L309.820312,219.59375 L311.460938,219.59375 L311.460938,217.1875 L320.539062,217.1875 L320.539062,219.59375 L322.179688,219.59375 Z M318.050781,218.746094 L318.050781,219.59375 L313.128906,219.59375 L313.128906,218.746094 L318.050781,218.746094 Z M316.410156,220.414062 L316.410156,221.234375 L313.128906,221.234375 L313.128906,220.414062 L316.410156,220.414062 Z M311.460938,215.464844 L311.460938,216.285156 L310.640625,216.285156 L310.640625,215.464844 L311.460938,215.464844 Z M313.128906,215.464844 L313.128906,216.285156 L312.28125,216.285156 L312.28125,215.464844 L313.128906,215.464844 Z" id="" fill="#FFFFFF"></path>
        <rect id="Rectangle-10-Copy" fill="#2F4677" x="0" y="300" width="32" height="32"></rect>
        <path d="M19.2539062,313.46875 L19.0078125,315.875 L17.0664062,315.875 L17.0664062,322.875 L14.1953125,322.875 L14.1953125,315.875 L12.7460938,315.875 L12.7460938,313.46875 L14.1679688,313.46875 L14.1679688,312.019531 C14.1679688,311.527341 14.2180985,311.085288 14.3183594,310.693359 C14.4186203,310.30143 14.5963529,309.973309 14.8515625,309.708984 C15.1067721,309.44466 15.4303366,309.239584 15.8222656,309.09375 C16.2141947,308.947916 16.70182,308.875 17.2851562,308.875 L19.2265625,308.875 L19.2265625,311.28125 L18.0234375,311.28125 C17.7864571,311.28125 17.6041673,311.304036 17.4765625,311.349609 C17.3489577,311.395183 17.2532555,311.458984 17.1894531,311.541016 C17.1256507,311.623047 17.0846355,311.723307 17.0664062,311.841797 C17.048177,311.960287 17.0390625,312.101562 17.0390625,312.265625 L17.0390625,313.46875 L19.2539062,313.46875 Z" id="-copy" fill="#FFFFFF"></path>
        <g id="Group-Copy" transform="translate(100.000000, 300.000000)">
            <rect id="Rectangle-9" fill="#0074BA" x="0" y="0" width="32" height="32"></rect>
            <path d="M11.296906,20.0664379 C11.296906,20.7270664 10.7928626,21.0573757 9.78476057,21.0573757 L5.4992761,21.0573757 C4.4997537,21.0573757 4,20.701328 4,19.9892219 C4,19.6503281 4.19732764,19.2192101 4.59198885,18.695855 L8.4141777,13.6253418 L5.66014263,13.6253418 C4.64775085,13.6253418 4.14156255,13.303612 4.14156255,12.6601426 C4.14156255,12.0123835 4.64775085,11.6885088 5.66014263,11.6885088 L9.28285698,11.6885088 C10.5054488,11.6885088 11.1167355,12.035977 11.1167355,12.7309239 C11.1167355,13.0397892 10.9086835,13.4751969 10.4925733,14.0371602 L6.76690439,19.0819347 L9.78476057,19.0819347 C10.7928626,19.0819347 11.296906,19.4100991 11.296906,20.0664379 Z M15.6248592,20.4267789 C15.1958797,20.9544238 14.6167659,21.2182423 13.8875007,21.2182423 C12.935166,21.2182423 12.1587246,20.8364562 11.5581533,20.0728725 C11.0090594,19.369346 10.7345166,18.5285587 10.7345166,17.5504853 C10.7345166,16.5681221 11.0240735,15.723045 11.6031959,15.0152287 C12.2209265,14.2559349 13.0080922,13.8762936 13.9647166,13.8762936 C14.6639533,13.8762936 15.2173286,14.1229532 15.6248592,14.6162797 C15.8650878,14.1744307 16.1953971,13.9535096 16.6157971,13.9535096 C17.2978746,13.9535096 17.6389082,14.4554081 17.6389082,15.4592203 L17.6389082,19.6353156 C17.6389082,20.6434175 17.2978746,21.147461 16.6157971,21.147461 C16.1696583,21.147461 15.839349,20.907236 15.6248592,20.4267789 Z M12.8836935,17.5247466 C12.8836935,17.9837548 12.9887919,18.3698306 13.1989919,18.6829857 C13.4435103,19.0433285 13.7866888,19.2234972 14.2285377,19.2234972 C14.6618071,19.2234972 15.0006959,19.0411836 15.2452142,18.676551 C15.4554142,18.3591061 15.5605126,17.9751752 15.5605126,17.5247466 C15.5605126,17.0828977 15.4511245,16.7054013 15.2323449,16.3922462 C14.9878265,16.040483 14.6532275,15.864604 14.2285377,15.864604 C13.7952684,15.864604 13.4563796,16.0383381 13.2118612,16.3858116 C12.9930816,16.6946769 12.8836935,17.0743181 12.8836935,17.5247466 Z M18.4857097,12.5185801 C18.4857097,11.5061883 18.8331779,11 19.5281248,11 C20.2102023,11 20.551236,11.5061883 20.551236,12.5185801 L20.551236,19.6353156 C20.551236,20.6434175 20.2102023,21.147461 19.5281248,21.147461 C18.8331779,21.147461 18.4857097,20.6434175 18.4857097,19.6353156 L18.4857097,12.5185801 Z M23.1225267,17.5247466 C23.1225267,18.0009139 23.22977,18.4020038 23.4442598,18.7280283 C23.6887781,19.1055303 24.0383912,19.2942785 24.4931096,19.2942785 C24.9435381,19.2942785 25.2931512,19.1055303 25.5419594,18.7280283 C25.7564491,18.4020038 25.8636924,18.0009139 25.8636924,17.5247466 C25.8636924,17.0657385 25.7521594,16.6732281 25.52909,16.3472036 C25.2759921,15.9739914 24.9306687,15.7873881 24.4931096,15.7873881 C24.0469708,15.7873881 23.6995026,15.9718465 23.4506944,16.3407689 C23.2319148,16.6667934 23.1225267,17.0614487 23.1225267,17.5247466 Z M20.9733498,17.5504853 C20.9733498,16.4909057 21.2929348,15.6136557 21.9321143,14.9187088 C22.5884531,14.1980231 23.4421096,13.8376857 24.4931096,13.8376857 C25.5483993,13.8376857 26.4020558,14.1958782 27.0541048,14.9122741 C27.6847047,15.607221 28,16.4866159 28,17.5504853 C28,18.6143546 27.6847047,19.4937495 27.0541048,20.1886964 C26.4020558,20.9093821 25.5483993,21.2697195 24.4931096,21.2697195 C23.4421096,21.2697195 22.5884531,20.9093821 21.9321143,20.1886964 C21.2929348,19.4894597 20.9733498,18.6100648 20.9733498,17.5504853 Z" id="Zalo" fill="#FFFFFF"></path>
        </g>
        <rect id="Rectangle-6-Copy" fill="#C78416" x="200" y="300" width="32" height="32"></rect>
        <path d="M209,310.515625 L223,310.515625 L223,321.234375 L209,321.234375 L209,310.515625 Z M216,316.96875 L221.6875,311.335938 L210.3125,311.335938 L216,316.96875 Z M213.730469,315.875 L209.820312,312.019531 L209.820312,319.730469 L213.730469,315.875 Z M214.332031,316.476562 L210.339844,320.414062 L221.578125,320.414062 L217.640625,316.503906 L216,318.117188 L214.332031,316.476562 Z M218.214844,315.929688 L222.179688,319.8125 L222.179688,312.019531 L218.214844,315.929688 Z" id="-copy" fill="#FFFFFF"></path>
        <rect id="Rectangle-4-Copy" fill="#939292" x="300" y="300" width="32" height="32"></rect>
        <path d="M323,313.824219 L323,320.414062 L320.539062,320.414062 L320.539062,322.957031 L311.460938,322.957031 L311.460938,320.414062 L309,320.414062 L309,313.824219 L311.460938,313.824219 L311.460938,308.875 L316.820312,308.875 L320.511719,312.320312 L320.511719,313.824219 L323,313.824219 Z M317.230469,310.378906 L317.230469,312.15625 L319.144531,312.15625 L317.230469,310.378906 Z M312.28125,309.695312 L312.28125,313.824219 L319.691406,313.824219 L319.691406,313.003906 L316.410156,313.003906 L316.410156,309.695312 L312.28125,309.695312 Z M319.71875,322.136719 L319.71875,318.007812 L312.28125,318.007812 L312.28125,322.136719 L319.71875,322.136719 Z M322.179688,319.59375 L322.179688,314.644531 L309.820312,314.644531 L309.820312,319.59375 L311.460938,319.59375 L311.460938,317.1875 L320.539062,317.1875 L320.539062,319.59375 L322.179688,319.59375 Z M318.050781,318.746094 L318.050781,319.59375 L313.128906,319.59375 L313.128906,318.746094 L318.050781,318.746094 Z M316.410156,320.414062 L316.410156,321.234375 L313.128906,321.234375 L313.128906,320.414062 L316.410156,320.414062 Z M311.460938,315.464844 L311.460938,316.285156 L310.640625,316.285156 L310.640625,315.464844 L311.460938,315.464844 Z M313.128906,315.464844 L313.128906,316.285156 L312.28125,316.285156 L312.28125,315.464844 L313.128906,315.464844 Z" id="-copy" fill="#FFFFFF"></path>
        <g id="rss" opacity="0.5" transform="translate(200.000000, 0.000000)" fill="#000000" fill-rule="nonzero">
            <path d="M0.545454545,4.09090909 C0.244208318,4.09090909 0,3.84670077 0,3.54545455 C0,3.24420832 0.244208318,3 0.545454545,3 C3.55791682,3 6,5.44208318 6,8.45454545 C6,8.75579168 5.75579168,9 5.45454545,9 C5.15329923,9 4.90909091,8.75579168 4.90909091,8.45454545 C4.90909091,6.04457564 2.95542436,4.09090909 0.545454545,4.09090909 Z" id="Shape"></path>
            <path d="M0.5,1 C0.223857625,1 0,0.776142375 0,0.5 C0,0.223857625 0.223857625,0 0.5,0 C5.19442037,4.99600361e-16 9,3.80557963 9,8.5 C9,8.77614237 8.77614237,9 8.5,9 C8.22385763,9 8,8.77614237 8,8.5 C8,4.35786438 4.64213562,1 0.5,1 Z" id="Shape"></path>
            <path d="M1.5,9 C0.671572875,9 0,8.32842712 0,7.5 C0,6.67157288 0.671572875,6 1.5,6 C2.32842712,6 3,6.67157288 3,7.5 C3,8.32842712 2.32842712,9 1.5,9 Z" id="Oval"></path>
        </g>
        <g id="clock" opacity="0.5" transform="translate(300.000000, 0.000000)" fill="#000000" fill-rule="nonzero">
            <path d="M5,10 C2.23857625,10 0,7.76142375 0,5 C0,2.23857625 2.23857625,0 5,0 C7.76142375,0 10,2.23857625 10,5 C10,7.76142375 7.76142375,10 5,10 Z M5,9 C7.209139,9 9,7.209139 9,5 C9,2.790861 7.209139,1 5,1 C2.790861,1 1,2.790861 1,5 C1,7.209139 2.790861,9 5,9 Z" id="Oval"></path>
            <path d="M4.99996349,5.19091311 L6.72350736,6.05269763 C6.9704876,6.17618955 7.07059611,6.47651949 6.947106,6.72350333 C6.82361588,6.97048716 6.52329033,7.07059715 6.2763101,6.94710523 L4.27638311,5.94712713 C4.10699728,5.86243298 4,5.68930521 4,5.49992333 L4,2.49998905 C4,2.22385272 4.22384945,2 4.49998175,2 C4.77611404,2 4.99996349,2.22385272 4.99996349,2.49998905 L4.99996349,5.19091311 Z" id="Shape"></path>
        </g>
        <path d="M409.545455,11.0864056 L410.94408,6.77864056 C411.036885,6.49280107 411.297434,6.3 411.590909,6.3 L414.318182,6.3 C414.69474,6.3 415,6.61340068 415,7 C415,7.38659932 414.69474,7.7 414.318182,7.7 L412.082336,7.7 L410.192284,13.5213594 C409.98508,14.1595469 409.105829,14.1595469 408.898625,13.5213594 L405.454545,2.91359436 L404.05592,7.22135944 C403.963115,7.50719893 403.702566,7.7 403.409091,7.7 L400.681818,7.7 C400.30526,7.7 400,7.38659932 400,7 C400,6.61340068 400.30526,6.3 400.681818,6.3 L402.917664,6.3 L404.807716,0.478640564 C405.01492,-0.159546855 405.894171,-0.159546855 406.101375,0.478640564 L409.545455,11.0864056 Z" id="Shape" fill="#C82228" fill-rule="nonzero"></path>
        <g id="home-copy" transform="translate(0.000000, 100.000000)" fill="#C82228" fill-rule="nonzero" opacity="0.900000036">
            <path d="M1.3,5.40214424 L1.3,12.0909091 C1.3,12.442363 1.59101491,12.7272727 1.95,12.7272727 L11.05,12.7272727 C11.4089851,12.7272727 11.7,12.442363 11.7,12.0909091 L11.7,5.40214424 L6.5,1.44254828 L1.3,5.40214424 Z M0.250938601,4.58859404 L6.1009386,0.134048589 C6.33566042,-0.044682863 6.66433958,-0.044682863 6.8990614,0.134048589 L12.7490614,4.58859404 C12.9073927,4.70915708 13,4.89453336 13,5.09090909 L13,12.0909091 C13,13.1452709 12.1269553,14 11.05,14 L1.95,14 C0.873044738,14 0,13.1452709 0,12.0909091 L0,5.09090909 C0,4.89453336 0.0926073485,4.70915708 0.250938601,4.58859404 Z" id="Shape"></path>
            <path d="M5.25,7.33333333 L5.25,13.3333333 C5.25,13.7015232 4.97017797,14 4.625,14 C4.27982203,14 4,13.7015232 4,13.3333333 L4,6.66666667 C4,6.29847683 4.27982203,6 4.625,6 L8.375,6 C8.72017797,6 9,6.29847683 9,6.66666667 L9,13.3333333 C9,13.7015232 8.72017797,14 8.375,14 C8.02982203,14 7.75,13.7015232 7.75,13.3333333 L7.75,7.33333333 L5.25,7.33333333 Z" id="Shape"></path>
        </g>
        <g id="search-copy" transform="translate(100.000000, 100.000000)" fill="#C82228" fill-rule="nonzero">
            <path d="M6.5,13 C2.91014913,13 0,10.0898509 0,6.5 C0,2.91014913 2.91014913,0 6.5,0 C10.0898509,0 13,2.91014913 13,6.5 C13,10.0898509 10.0898509,13 6.5,13 Z M6.5,11.1428571 C9.0641792,11.1428571 11.1428571,9.0641792 11.1428571,6.5 C11.1428571,3.9358208 9.0641792,1.85714286 6.5,1.85714286 C3.9358208,1.85714286 1.85714286,3.9358208 1.85714286,6.5 C1.85714286,9.0641792 3.9358208,11.1428571 6.5,11.1428571 Z" id="Oval"></path>
            <path d="M13.7071068,13.2928932 C14.0976311,13.6834175 14.0976311,14.3165825 13.7071068,14.7071068 C13.3165825,15.0976311 12.6834175,15.0976311 12.2928932,14.7071068 L9.29289322,11.7071068 C8.90236893,11.3165825 8.90236893,10.6834175 9.29289322,10.2928932 C9.68341751,9.90236893 10.3165825,9.90236893 10.7071068,10.2928932 L13.7071068,13.2928932 Z" id="Shape"></path>
        </g>
        <g id="rss-copy" transform="translate(200.000000, 100.000000)" fill="#C82228" fill-rule="nonzero">
            <path d="M0.545454545,4.09090909 C0.244208318,4.09090909 0,3.84670077 0,3.54545455 C0,3.24420832 0.244208318,3 0.545454545,3 C3.55791682,3 6,5.44208318 6,8.45454545 C6,8.75579168 5.75579168,9 5.45454545,9 C5.15329923,9 4.90909091,8.75579168 4.90909091,8.45454545 C4.90909091,6.04457564 2.95542436,4.09090909 0.545454545,4.09090909 Z" id="Shape"></path>
            <path d="M0.5,1 C0.223857625,1 0,0.776142375 0,0.5 C0,0.223857625 0.223857625,0 0.5,0 C5.19442037,4.99600361e-16 9,3.80557963 9,8.5 C9,8.77614237 8.77614237,9 8.5,9 C8.22385763,9 8,8.77614237 8,8.5 C8,4.35786438 4.64213562,1 0.5,1 Z" id="Shape"></path>
            <path d="M1.5,9 C0.671572875,9 0,8.32842712 0,7.5 C0,6.67157288 0.671572875,6 1.5,6 C2.32842712,6 3,6.67157288 3,7.5 C3,8.32842712 2.32842712,9 1.5,9 Z" id="Oval"></path>
        </g>
        <g id="clock-copy" transform="translate(300.000000, 100.000000)" fill="#C82228" fill-rule="nonzero">
            <path d="M5,10 C2.23857625,10 0,7.76142375 0,5 C0,2.23857625 2.23857625,0 5,0 C7.76142375,0 10,2.23857625 10,5 C10,7.76142375 7.76142375,10 5,10 Z M5,9 C7.209139,9 9,7.209139 9,5 C9,2.790861 7.209139,1 5,1 C2.790861,1 1,2.790861 1,5 C1,7.209139 2.790861,9 5,9 Z" id="Oval"></path>
            <path d="M4.99996349,5.19091311 L6.72350736,6.05269763 C6.9704876,6.17618955 7.07059611,6.47651949 6.947106,6.72350333 C6.82361588,6.97048716 6.52329033,7.07059715 6.2763101,6.94710523 L4.27638311,5.94712713 C4.10699728,5.86243298 4,5.68930521 4,5.49992333 L4,2.49998905 C4,2.22385272 4.22384945,2 4.49998175,2 C4.77611404,2 4.99996349,2.22385272 4.99996349,2.49998905 L4.99996349,5.19091311 Z" id="Shape"></path>
        </g>
        <path d="M409.545455,111.086406 L410.94408,106.778641 C411.036885,106.492801 411.297434,106.3 411.590909,106.3 L414.318182,106.3 C414.69474,106.3 415,106.613401 415,107 C415,107.386599 414.69474,107.7 414.318182,107.7 L412.082336,107.7 L410.192284,113.521359 C409.98508,114.159547 409.105829,114.159547 408.898625,113.521359 L405.454545,102.913594 L404.05592,107.221359 C403.963115,107.507199 403.702566,107.7 403.409091,107.7 L400.681818,107.7 C400.30526,107.7 400,107.386599 400,107 C400,106.613401 400.30526,106.3 400.681818,106.3 L402.917664,106.3 L404.807716,100.478641 C405.01492,99.8404531 405.894171,99.8404531 406.101375,100.478641 L409.545455,111.086406 Z" id="Shape-Copy" fill="#C82228" fill-rule="nonzero"></path>
        <g id="play-circle" transform="translate(400.000000, 200.000000)" fill="#FFFFFF" fill-rule="nonzero">
            <path d="M17.5,35 C7.83501688,35 0,27.1649831 0,17.5 C0,7.83501688 7.83501688,0 17.5,0 C27.1649831,0 35,7.83501688 35,17.5 C35,27.1649831 27.1649831,35 17.5,35 Z M17.5,31.8181818 C25.4077135,31.8181818 31.8181818,25.4077135 31.8181818,17.5 C31.8181818,9.59228654 25.4077135,3.18181818 17.5,3.18181818 C9.59228654,3.18181818 3.18181818,9.59228654 3.18181818,17.5 C3.18181818,25.4077135 9.59228654,31.8181818 17.5,31.8181818 Z" id="Oval"></path>
            <path d="M16.25,14.5907738 L16.25,21.4092262 L21.4454896,18 L16.25,14.5907738 Z M15.5263878,10.2713186 L25.2763878,16.6691671 C26.2412041,17.3022694 26.2412041,18.6977306 25.2763878,19.3308329 L15.5263878,25.7286814 C14.4464864,26.4373015 13,25.6753315 13,24.3978485 L13,11.6021515 C13,10.3246685 14.4464864,9.56269848 15.5263878,10.2713186 Z" id="Shape"></path>
        </g>
        <path d="M9,421.683203 C9,418.675391 9.6875,416.183203 11.0625,414.206641 C12.4947914,412.172787 14.5859375,410.783463 17.3359375,410.038672 C17.6510414,409.952734 17.9446617,410.010026 18.2167969,410.210547 C18.4889321,410.411068 18.625,410.683203 18.625,411.026953 L18.625,412.487891 C18.625,412.688412 18.5605469,412.881771 18.4316406,413.067969 C18.3027344,413.254166 18.1380211,413.375912 17.9375,413.433203 C14.9583336,414.521745 13.46875,416.584245 13.46875,419.620703 L16.5625,419.620703 C17.1354164,419.620703 17.6223961,419.821224 18.0234375,420.222266 C18.4244789,420.623307 18.625,421.110287 18.625,421.683203 L18.625,427.183203 C18.625,427.75612 18.4244789,428.243099 18.0234375,428.644141 C17.6223961,429.045182 17.1354164,429.245703 16.5625,429.245703 L11.0625,429.245703 C10.4895836,429.245703 10.0026039,429.045182 9.6015625,428.644141 C9.20052105,428.243099 9,427.75612 9,427.183203 L9,421.683203 Z M23.4375,429.245703 C22.8645836,429.245703 22.3776039,429.045182 21.9765625,428.644141 C21.5755211,428.243099 21.375,427.75612 21.375,427.183203 L21.375,421.683203 C21.375,418.675391 22.0625,416.183203 23.4375,414.206641 C24.8697914,412.172787 26.9609375,410.783463 29.7109375,410.038672 C30.0260414,409.952734 30.3196617,410.010026 30.5917969,410.210547 C30.8639321,410.411068 31,410.683203 31,411.026953 L31,412.487891 C31,412.688412 30.9355469,412.881771 30.8066406,413.067969 C30.6777344,413.254166 30.5130211,413.375912 30.3125,413.433203 C27.3333336,414.521745 25.84375,416.584245 25.84375,419.620703 L28.9375,419.620703 C29.5104164,419.620703 29.9973961,419.821224 30.3984375,420.222266 C30.7994789,420.623307 31,421.110287 31,421.683203 L31,427.183203 C31,427.75612 30.7994789,428.243099 30.3984375,428.644141 C29.9973961,429.045182 29.5104164,429.245703 28.9375,429.245703 L23.4375,429.245703 Z" id="" fill="#C82228"></path>
        <g id="Group-2" transform="translate(100.000000, 400.000000)" fill="#000000" fill-rule="nonzero">
            <path d="M0.85,7 C0.380557963,7 0,6.55228475 0,6 C0,5.44771525 0.380557963,5 0.85,5 L16.15,5 C16.619442,5 17,5.44771525 17,6 C17,6.55228475 16.619442,7 16.15,7 L0.85,7 Z" id="Shape"></path>
            <path d="M0.85,2 C0.380557963,2 0,1.55228475 0,1 C0,0.44771525 0.380557963,0 0.85,0 L16.15,0 C16.619442,0 17,0.44771525 17,1 C17,1.55228475 16.619442,2 16.15,2 L0.85,2 Z" id="Shape"></path>
            <path d="M0.85,12 C0.380557963,12 0,11.5522847 0,11 C0,10.4477153 0.380557963,10 0.85,10 L16.15,10 C16.619442,10 17,10.4477153 17,11 C17,11.5522847 16.619442,12 16.15,12 L0.85,12 Z" id="Shape"></path>
        </g>
        <g id="Group-3" transform="translate(200.000000, 400.000000)" fill="#6E6E6E" fill-rule="nonzero">
            <path d="M1.90909091,1.25 C1.55763698,1.25 1.27272727,1.52982203 1.27272727,1.875 L1.27272727,8.125 C1.27272727,8.47017797 1.55763698,8.75 1.90909091,8.75 L12.0909091,8.75 C12.442363,8.75 12.7272727,8.47017797 12.7272727,8.125 L12.7272727,1.875 C12.7272727,1.52982203 12.442363,1.25 12.0909091,1.25 L1.90909091,1.25 Z M1.90909091,0 L12.0909091,0 C13.1452709,0 14,0.839466094 14,1.875 L14,8.125 C14,9.16053391 13.1452709,10 12.0909091,10 L1.90909091,10 C0.854729114,10 0,9.16053391 0,8.125 L0,1.875 C0,0.839466094 0.854729114,0 1.90909091,0 Z" id="Rectangle-path"></path>
            <path d="M4.2,13 C3.81340068,13 3.5,12.7761424 3.5,12.5 C3.5,12.2238576 3.81340068,12 4.2,12 L9.8,12 C10.1865993,12 10.5,12.2238576 10.5,12.5 C10.5,12.7761424 10.1865993,13 9.8,13 L4.2,13 Z" id="Shape"></path>
            <path d="M6.5,9.66666667 C6.5,9.29847683 6.72385763,9 7,9 C7.27614237,9 7.5,9.29847683 7.5,9.66666667 L7.5,12.3333333 C7.5,12.7015232 7.27614237,13 7,13 C6.72385763,13 6.5,12.7015232 6.5,12.3333333 L6.5,9.66666667 Z" id="Shape"></path>
        </g>
        <path d="M307.71425,400 L301.285719,400 C300.5785,400 300,400.572687 300,401.27275 L300,412.727281 C300,413.427312 300.5785,414 301.285719,414 L307.71425,414 C308.4215,414 309,413.427312 309,412.72725 L309,401.27275 C309,400.572687 308.4215,400 307.71425,400 Z M308,412 L301,412 L301,402 L308,402 L308,412 Z" id="Shape" fill="#000000" fill-rule="nonzero"></path>
        <g id="rss" transform="translate(400.000000, 400.000000)" fill="#FFFFFF" fill-rule="nonzero">
            <path d="M0.545454545,4.09090909 C0.244208318,4.09090909 0,3.84670077 0,3.54545455 C0,3.24420832 0.244208318,3 0.545454545,3 C3.55791682,3 6,5.44208318 6,8.45454545 C6,8.75579168 5.75579168,9 5.45454545,9 C5.15329923,9 4.90909091,8.75579168 4.90909091,8.45454545 C4.90909091,6.04457564 2.95542436,4.09090909 0.545454545,4.09090909 Z" id="Shape"></path>
            <path d="M0.5,1 C0.223857625,1 0,0.776142375 0,0.5 C0,0.223857625 0.223857625,0 0.5,0 C5.19442037,4.99600361e-16 9,3.80557963 9,8.5 C9,8.77614237 8.77614237,9 8.5,9 C8.22385763,9 8,8.77614237 8,8.5 C8,4.35786438 4.64213562,1 0.5,1 Z" id="Shape"></path>
            <path d="M1.5,9 C0.671572875,9 0,8.32842712 0,7.5 C0,6.67157288 0.671572875,6 1.5,6 C2.32842712,6 3,6.67157288 3,7.5 C3,8.32842712 2.32842712,9 1.5,9 Z" id="Oval"></path>
        </g>
        <g id="Group-5" transform="translate(600.000000, 0.000000)" fill="#000000" fill-rule="nonzero">
            <path d="M5.56219053,1.1 L4.56869601,2.50508511 C4.46050763,2.65809438 4.27837269,2.75 4.08333333,2.75 L1.75,2.75 C1.4278339,2.75 1.16666667,2.99624339 1.16666667,3.3 L1.16666667,9.35 C1.16666667,9.65375661 1.4278339,9.9 1.75,9.9 L12.25,9.9 C12.5721661,9.9 12.8333333,9.65375661 12.8333333,9.35 L12.8333333,3.3 C12.8333333,2.99624339 12.5721661,2.75 12.25,2.75 L9.91666667,2.75 C9.72162731,2.75 9.53949237,2.65809438 9.43130399,2.50508511 L8.43780947,1.1 L5.56219053,1.1 Z M10.2288572,1.65 L12.25,1.65 C13.2164983,1.65 14,2.38873016 14,3.3 L14,9.35 C14,10.2612698 13.2164983,11 12.25,11 L1.75,11 C0.783501688,11 1.94289029e-16,10.2612698 0,9.35 L0,3.3 C-1.2952602e-16,2.38873016 0.783501688,1.65 1.75,1.65 L3.77114281,1.65 L4.76463733,0.244914892 C4.8728257,0.0919056244 5.05496064,0 5.25,0 L8.75,0 C8.94503936,0 9.1271743,0.0919056244 9.23536267,0.244914892 L10.2288572,1.65 Z" id="Shape"></path>
            <path d="M7,9 C5.34314575,9 4,7.65685425 4,6 C4,4.34314575 5.34314575,3 7,3 C8.65685425,3 10,4.34314575 10,6 C10,7.65685425 8.65685425,9 7,9 Z M7,7.8 C7.99411255,7.8 8.8,6.99411255 8.8,6 C8.8,5.00588745 7.99411255,4.2 7,4.2 C6.00588745,4.2 5.2,5.00588745 5.2,6 C5.2,6.99411255 6.00588745,7.8 7,7.8 Z" id="Oval"></path>
        </g>
        <g id="Group-4" transform="translate(500.000000, 0.000000)" fill="#000000" fill-rule="nonzero">
            <path d="M14.6004584,1.36641658 C15.0315073,1.07093958 15.6302567,1.36664215 15.6302567,1.875 L15.6302567,8.125 C15.6302567,8.63335785 15.0315073,8.92906042 14.6004584,8.63358342 L10.0416335,5.50858342 C9.67800273,5.25932044 9.67800273,4.74067956 10.0416335,4.49141658 L14.6004584,1.36641658 Z M11.5406424,5 L14.3277353,6.91050667 L14.3277353,3.08949333 L11.5406424,5 Z" id="Shape"></path>
            <path d="M1.94117647,1.25 C1.58381575,1.25 1.29411765,1.52982203 1.29411765,1.875 L1.29411765,8.125 C1.29411765,8.47017797 1.58381575,8.75 1.94117647,8.75 L9.05882353,8.75 C9.41618425,8.75 9.70588235,8.47017797 9.70588235,8.125 L9.70588235,1.875 C9.70588235,1.52982203 9.41618425,1.25 9.05882353,1.25 L1.94117647,1.25 Z M1.94117647,0 L9.05882353,0 C10.1309057,0 11,0.839466094 11,1.875 L11,8.125 C11,9.16053391 10.1309057,10 9.05882353,10 L1.94117647,10 C0.869094309,10 0,9.16053391 0,8.125 L0,1.875 C0,0.839466094 0.869094309,0 1.94117647,0 Z" id="Rectangle-path"></path>
        </g>
        <g id="Group-5-Copy" transform="translate(600.000000, 100.000000)" fill="#FFFFFF" fill-rule="nonzero">
            <path d="M5.56219053,1.1 L4.56869601,2.50508511 C4.46050763,2.65809438 4.27837269,2.75 4.08333333,2.75 L1.75,2.75 C1.4278339,2.75 1.16666667,2.99624339 1.16666667,3.3 L1.16666667,9.35 C1.16666667,9.65375661 1.4278339,9.9 1.75,9.9 L12.25,9.9 C12.5721661,9.9 12.8333333,9.65375661 12.8333333,9.35 L12.8333333,3.3 C12.8333333,2.99624339 12.5721661,2.75 12.25,2.75 L9.91666667,2.75 C9.72162731,2.75 9.53949237,2.65809438 9.43130399,2.50508511 L8.43780947,1.1 L5.56219053,1.1 Z M10.2288572,1.65 L12.25,1.65 C13.2164983,1.65 14,2.38873016 14,3.3 L14,9.35 C14,10.2612698 13.2164983,11 12.25,11 L1.75,11 C0.783501688,11 1.94289029e-16,10.2612698 0,9.35 L0,3.3 C-1.2952602e-16,2.38873016 0.783501688,1.65 1.75,1.65 L3.77114281,1.65 L4.76463733,0.244914892 C4.8728257,0.0919056244 5.05496064,0 5.25,0 L8.75,0 C8.94503936,0 9.1271743,0.0919056244 9.23536267,0.244914892 L10.2288572,1.65 Z" id="Shape"></path>
            <path d="M7,9 C5.34314575,9 4,7.65685425 4,6 C4,4.34314575 5.34314575,3 7,3 C8.65685425,3 10,4.34314575 10,6 C10,7.65685425 8.65685425,9 7,9 Z M7,7.8 C7.99411255,7.8 8.8,6.99411255 8.8,6 C8.8,5.00588745 7.99411255,4.2 7,4.2 C6.00588745,4.2 5.2,5.00588745 5.2,6 C5.2,6.99411255 6.00588745,7.8 7,7.8 Z" id="Oval"></path>
        </g>
        <g id="Group-4-Copy" transform="translate(500.000000, 100.000000)" fill="#FFFFFF" fill-rule="nonzero">
            <path d="M14.6004584,1.36641658 C15.0315073,1.07093958 15.6302567,1.36664215 15.6302567,1.875 L15.6302567,8.125 C15.6302567,8.63335785 15.0315073,8.92906042 14.6004584,8.63358342 L10.0416335,5.50858342 C9.67800273,5.25932044 9.67800273,4.74067956 10.0416335,4.49141658 L14.6004584,1.36641658 Z M11.5406424,5 L14.3277353,6.91050667 L14.3277353,3.08949333 L11.5406424,5 Z" id="Shape"></path>
            <path d="M1.94117647,1.25 C1.58381575,1.25 1.29411765,1.52982203 1.29411765,1.875 L1.29411765,8.125 C1.29411765,8.47017797 1.58381575,8.75 1.94117647,8.75 L9.05882353,8.75 C9.41618425,8.75 9.70588235,8.47017797 9.70588235,8.125 L9.70588235,1.875 C9.70588235,1.52982203 9.41618425,1.25 9.05882353,1.25 L1.94117647,1.25 Z M1.94117647,0 L9.05882353,0 C10.1309057,0 11,0.839466094 11,1.875 L11,8.125 C11,9.16053391 10.1309057,10 9.05882353,10 L1.94117647,10 C0.869094309,10 0,9.16053391 0,8.125 L0,1.875 C0,0.839466094 0.869094309,0 1.94117647,0 Z" id="Rectangle-path"></path>
        </g>
    </g>
</svg>