<?xml version="1.0" encoding="UTF-8"?>
<svg width="500px" height="500px" viewBox="0 0 500 500" version="1.1" xmlns="http://www.w3.org/2000/svg" xmlns:xlink="http://www.w3.org/1999/xlink">
    <!-- Generator: Sketch 51.1 (57501) - http://www.bohemiancoding.com/sketch -->
    <title>sprites</title>
    <desc>Created with Sketch.</desc>
    <defs></defs>
    <g id="sprites" stroke="none" stroke-width="1" fill="none" fill-rule="evenodd">
        <g id="home" fill="#000000" fill-rule="nonzero">
            <path d="M1.3,5.40214424 L1.3,12.0909091 C1.3,12.442363 1.59101491,12.7272727 1.95,12.7272727 L11.05,12.7272727 C11.4089851,12.7272727 11.7,12.442363 11.7,12.0909091 L11.7,5.40214424 L6.5,1.44254828 L1.3,5.40214424 Z M0.250938601,4.58859404 L6.1009386,0.134048589 C6.33566042,-0.044682863 6.66433958,-0.044682863 6.8990614,0.134048589 L12.7490614,4.58859404 C12.9073927,4.70915708 13,4.89453336 13,5.09090909 L13,12.0909091 C13,13.1452709 12.1269553,14 11.05,14 L1.95,14 C0.873044738,14 0,13.1452709 0,12.0909091 L0,5.09090909 C0,4.89453336 0.0926073485,4.70915708 0.250938601,4.58859404 Z" id="Shape"></path>
            <path d="M5.25,7.33333333 L5.25,13.3333333 C5.25,13.7015232 4.97017797,14 4.625,14 C4.27982203,14 4,13.7015232 4,13.3333333 L4,6.66666667 C4,6.29847683 4.27982203,6 4.625,6 L8.375,6 C8.72017797,6 9,6.29847683 9,6.66666667 L9,13.3333333 C9,13.7015232 8.72017797,14 8.375,14 C8.02982203,14 7.75,13.7015232 7.75,13.3333333 L7.75,7.33333333 L5.25,7.33333333 Z" id="Shape"></path>
        </g>
        <g id="search" opacity="0.5" transform="translate(100.000000, 0.000000)" fill="#000000" fill-rule="nonzero">
            <path d="M6.5,13 C2.91014913,13 0,10.0898509 0,6.5 C0,2.91014913 2.91014913,0 6.5,0 C10.0898509,0 13,2.91014913 13,6.5 C13,10.0898509 10.0898509,13 6.5,13 Z M6.5,11.1428571 C9.0641792,11.1428571 11.1428571,9.0641792 11.1428571,6.5 C11.1428571,3.9358208 9.0641792,1.85714286 6.5,1.85714286 C3.9358208,1.85714286 1.85714286,3.9358208 1.85714286,6.5 C1.85714286,9.0641792 3.9358208,11.1428571 6.5,11.1428571 Z" id="Oval"></path>
            <path d="M13.7071068,13.2928932 C14.0976311,13.6834175 14.0976311,14.3165825 13.7071068,14.7071068 C13.3165825,15.0976311 12.6834175,15.0976311 12.2928932,14.7071068 L9.29289322,11.7071068 C8.90236893,11.3165825 8.90236893,10.6834175 9.29289322,10.2928932 C9.68341751,9.90236893 10.3165825,9.90236893 10.7071068,10.2928932 L13.7071068,13.2928932 Z" id="Shape"></path>
        </g>
        <rect id="Rectangle-10" fill="#3B5998" x="0" y="200" width="32" height="32"></rect>
        <text id="" font-family="themify" font-size="14" font-weight="normal" fill="#FFFFFF">
            <tspan x="9" y="222"></tspan>
        </text>
        <g id="Group" transform="translate(100.000000, 200.000000)">
            <rect id="Rectangle-9" fill="#018FE5" x="0" y="0" width="32" height="32"></rect>
            <path d="M11.296906,20.0664379 C11.296906,20.7270664 10.7928626,21.0573757 9.78476057,21.0573757 L5.4992761,21.0573757 C4.4997537,21.0573757 4,20.701328 4,19.9892219 C4,19.6503281 4.19732764,19.2192101 4.59198885,18.695855 L8.4141777,13.6253418 L5.66014263,13.6253418 C4.64775085,13.6253418 4.14156255,13.303612 4.14156255,12.6601426 C4.14156255,12.0123835 4.64775085,11.6885088 5.66014263,11.6885088 L9.28285698,11.6885088 C10.5054488,11.6885088 11.1167355,12.035977 11.1167355,12.7309239 C11.1167355,13.0397892 10.9086835,13.4751969 10.4925733,14.0371602 L6.76690439,19.0819347 L9.78476057,19.0819347 C10.7928626,19.0819347 11.296906,19.4100991 11.296906,20.0664379 Z M15.6248592,20.4267789 C15.1958797,20.9544238 14.6167659,21.2182423 13.8875007,21.2182423 C12.935166,21.2182423 12.1587246,20.8364562 11.5581533,20.0728725 C11.0090594,19.369346 10.7345166,18.5285587 10.7345166,17.5504853 C10.7345166,16.5681221 11.0240735,15.723045 11.6031959,15.0152287 C12.2209265,14.2559349 13.0080922,13.8762936 13.9647166,13.8762936 C14.6639533,13.8762936 15.2173286,14.1229532 15.6248592,14.6162797 C15.8650878,14.1744307 16.1953971,13.9535096 16.6157971,13.9535096 C17.2978746,13.9535096 17.6389082,14.4554081 17.6389082,15.4592203 L17.6389082,19.6353156 C17.6389082,20.6434175 17.2978746,21.147461 16.6157971,21.147461 C16.1696583,21.147461 15.839349,20.907236 15.6248592,20.4267789 Z M12.8836935,17.5247466 C12.8836935,17.9837548 12.9887919,18.3698306 13.1989919,18.6829857 C13.4435103,19.0433285 13.7866888,19.2234972 14.2285377,19.2234972 C14.6618071,19.2234972 15.0006959,19.0411836 15.2452142,18.676551 C15.4554142,18.3591061 15.5605126,17.9751752 15.5605126,17.5247466 C15.5605126,17.0828977 15.4511245,16.7054013 15.2323449,16.3922462 C14.9878265,16.040483 14.6532275,15.864604 14.2285377,15.864604 C13.7952684,15.864604 13.4563796,16.0383381 13.2118612,16.3858116 C12.9930816,16.6946769 12.8836935,17.0743181 12.8836935,17.5247466 Z M18.4857097,12.5185801 C18.4857097,11.5061883 18.8331779,11 19.5281248,11 C20.2102023,11 20.551236,11.5061883 20.551236,12.5185801 L20.551236,19.6353156 C20.551236,20.6434175 20.2102023,21.147461 19.5281248,21.147461 C18.8331779,21.147461 18.4857097,20.6434175 18.4857097,19.6353156 L18.4857097,12.5185801 Z M23.1225267,17.5247466 C23.1225267,18.0009139 23.22977,18.4020038 23.4442598,18.7280283 C23.6887781,19.1055303 24.0383912,19.2942785 24.4931096,19.2942785 C24.9435381,19.2942785 25.2931512,19.1055303 25.5419594,18.7280283 C25.7564491,18.4020038 25.8636924,18.0009139 25.8636924,17.5247466 C25.8636924,17.0657385 25.7521594,16.6732281 25.52909,16.3472036 C25.2759921,15.9739914 24.9306687,15.7873881 24.4931096,15.7873881 C24.0469708,15.7873881 23.6995026,15.9718465 23.4506944,16.3407689 C23.2319148,16.6667934 23.1225267,17.0614487 23.1225267,17.5247466 Z M20.9733498,17.5504853 C20.9733498,16.4909057 21.2929348,15.6136557 21.9321143,14.9187088 C22.5884531,14.1980231 23.4421096,13.8376857 24.4931096,13.8376857 C25.5483993,13.8376857 26.4020558,14.1958782 27.0541048,14.9122741 C27.6847047,15.607221 28,16.4866159 28,17.5504853 C28,18.6143546 27.6847047,19.4937495 27.0541048,20.1886964 C26.4020558,20.9093821 25.5483993,21.2697195 24.4931096,21.2697195 C23.4421096,21.2697195 22.5884531,20.9093821 21.9321143,20.1886964 C21.2929348,19.4894597 20.9733498,18.6100648 20.9733498,17.5504853 Z" id="Zalo" fill="#FFFFFF"></path>
        </g>
        <rect id="Rectangle-6" fill="#E79919" x="200" y="200" width="32" height="32"></rect>
        <text id="" font-family="themify" font-size="14" font-weight="normal" fill="#FFFFFF">
            <tspan x="209" y="222"></tspan>
        </text>
        <rect id="Rectangle-4" fill="#AAAAAA" x="300" y="200" width="32" height="30"></rect>
        <text id="" font-family="themify" font-size="14" font-weight="normal" line-spacing="14" letter-spacing="-0.699999988" fill="#FFFFFF">
            <tspan x="309" y="222"></tspan>
        </text>
        <g id="rss" opacity="0.5" transform="translate(200.000000, 0.000000)" fill="#000000" fill-rule="nonzero">
            <path d="M0.545454545,4.09090909 C0.244208318,4.09090909 0,3.84670077 0,3.54545455 C0,3.24420832 0.244208318,3 0.545454545,3 C3.55791682,3 6,5.44208318 6,8.45454545 C6,8.75579168 5.75579168,9 5.45454545,9 C5.15329923,9 4.90909091,8.75579168 4.90909091,8.45454545 C4.90909091,6.04457564 2.95542436,4.09090909 0.545454545,4.09090909 Z" id="Shape"></path>
            <path d="M0.5,1 C0.223857625,1 0,0.776142375 0,0.5 C0,0.223857625 0.223857625,0 0.5,0 C5.19442037,4.99600361e-16 9,3.80557963 9,8.5 C9,8.77614237 8.77614237,9 8.5,9 C8.22385763,9 8,8.77614237 8,8.5 C8,4.35786438 4.64213562,1 0.5,1 Z" id="Shape"></path>
            <path d="M1.5,9 C0.671572875,9 0,8.32842712 0,7.5 C0,6.67157288 0.671572875,6 1.5,6 C2.32842712,6 3,6.67157288 3,7.5 C3,8.32842712 2.32842712,9 1.5,9 Z" id="Oval"></path>
        </g>
        <g id="clock" opacity="0.5" transform="translate(300.000000, 0.000000)" fill="#000000" fill-rule="nonzero">
            <path d="M5,10 C2.23857625,10 0,7.76142375 0,5 C0,2.23857625 2.23857625,0 5,0 C7.76142375,0 10,2.23857625 10,5 C10,7.76142375 7.76142375,10 5,10 Z M5,9 C7.209139,9 9,7.209139 9,5 C9,2.790861 7.209139,1 5,1 C2.790861,1 1,2.790861 1,5 C1,7.209139 2.790861,9 5,9 Z" id="Oval"></path>
            <path d="M4.99996349,5.19091311 L6.72350736,6.05269763 C6.9704876,6.17618955 7.07059611,6.47651949 6.947106,6.72350333 C6.82361588,6.97048716 6.52329033,7.07059715 6.2763101,6.94710523 L4.27638311,5.94712713 C4.10699728,5.86243298 4,5.68930521 4,5.49992333 L4,2.49998905 C4,2.22385272 4.22384945,2 4.49998175,2 C4.77611404,2 4.99996349,2.22385272 4.99996349,2.49998905 L4.99996349,5.19091311 Z" id="Shape"></path>
        </g>
        <path d="M409.545455,11.0864056 L410.94408,6.77864056 C411.036885,6.49280107 411.297434,6.3 411.590909,6.3 L414.318182,6.3 C414.69474,6.3 415,6.61340068 415,7 C415,7.38659932 414.69474,7.7 414.318182,7.7 L412.082336,7.7 L410.192284,13.5213594 C409.98508,14.1595469 409.105829,14.1595469 408.898625,13.5213594 L405.454545,2.91359436 L404.05592,7.22135944 C403.963115,7.50719893 403.702566,7.7 403.409091,7.7 L400.681818,7.7 C400.30526,7.7 400,7.38659932 400,7 C400,6.61340068 400.30526,6.3 400.681818,6.3 L402.917664,6.3 L404.807716,0.478640564 C405.01492,-0.159546855 405.894171,-0.159546855 406.101375,0.478640564 L409.545455,11.0864056 Z" id="Shape" fill="#C82228" fill-rule="nonzero"></path>
        <g id="home-copy" transform="translate(0.000000, 100.000000)" fill="#C82228" fill-rule="nonzero" opacity="0.900000036">
            <path d="M1.3,5.40214424 L1.3,12.0909091 C1.3,12.442363 1.59101491,12.7272727 1.95,12.7272727 L11.05,12.7272727 C11.4089851,12.7272727 11.7,12.442363 11.7,12.0909091 L11.7,5.40214424 L6.5,1.44254828 L1.3,5.40214424 Z M0.250938601,4.58859404 L6.1009386,0.134048589 C6.33566042,-0.044682863 6.66433958,-0.044682863 6.8990614,0.134048589 L12.7490614,4.58859404 C12.9073927,4.70915708 13,4.89453336 13,5.09090909 L13,12.0909091 C13,13.1452709 12.1269553,14 11.05,14 L1.95,14 C0.873044738,14 0,13.1452709 0,12.0909091 L0,5.09090909 C0,4.89453336 0.0926073485,4.70915708 0.250938601,4.58859404 Z" id="Shape"></path>
            <path d="M5.25,7.33333333 L5.25,13.3333333 C5.25,13.7015232 4.97017797,14 4.625,14 C4.27982203,14 4,13.7015232 4,13.3333333 L4,6.66666667 C4,6.29847683 4.27982203,6 4.625,6 L8.375,6 C8.72017797,6 9,6.29847683 9,6.66666667 L9,13.3333333 C9,13.7015232 8.72017797,14 8.375,14 C8.02982203,14 7.75,13.7015232 7.75,13.3333333 L7.75,7.33333333 L5.25,7.33333333 Z" id="Shape"></path>
        </g>
        <g id="search-copy" transform="translate(100.000000, 100.000000)" fill="#C82228" fill-rule="nonzero">
            <path d="M6.5,13 C2.91014913,13 0,10.0898509 0,6.5 C0,2.91014913 2.91014913,0 6.5,0 C10.0898509,0 13,2.91014913 13,6.5 C13,10.0898509 10.0898509,13 6.5,13 Z M6.5,11.1428571 C9.0641792,11.1428571 11.1428571,9.0641792 11.1428571,6.5 C11.1428571,3.9358208 9.0641792,1.85714286 6.5,1.85714286 C3.9358208,1.85714286 1.85714286,3.9358208 1.85714286,6.5 C1.85714286,9.0641792 3.9358208,11.1428571 6.5,11.1428571 Z" id="Oval"></path>
            <path d="M13.7071068,13.2928932 C14.0976311,13.6834175 14.0976311,14.3165825 13.7071068,14.7071068 C13.3165825,15.0976311 12.6834175,15.0976311 12.2928932,14.7071068 L9.29289322,11.7071068 C8.90236893,11.3165825 8.90236893,10.6834175 9.29289322,10.2928932 C9.68341751,9.90236893 10.3165825,9.90236893 10.7071068,10.2928932 L13.7071068,13.2928932 Z" id="Shape"></path>
        </g>
        <g id="rss-copy" transform="translate(200.000000, 100.000000)" fill="#C82228" fill-rule="nonzero">
            <path d="M0.545454545,4.09090909 C0.244208318,4.09090909 0,3.84670077 0,3.54545455 C0,3.24420832 0.244208318,3 0.545454545,3 C3.55791682,3 6,5.44208318 6,8.45454545 C6,8.75579168 5.75579168,9 5.45454545,9 C5.15329923,9 4.90909091,8.75579168 4.90909091,8.45454545 C4.90909091,6.04457564 2.95542436,4.09090909 0.545454545,4.09090909 Z" id="Shape"></path>
            <path d="M0.5,1 C0.223857625,1 0,0.776142375 0,0.5 C0,0.223857625 0.223857625,0 0.5,0 C5.19442037,4.99600361e-16 9,3.80557963 9,8.5 C9,8.77614237 8.77614237,9 8.5,9 C8.22385763,9 8,8.77614237 8,8.5 C8,4.35786438 4.64213562,1 0.5,1 Z" id="Shape"></path>
            <path d="M1.5,9 C0.671572875,9 0,8.32842712 0,7.5 C0,6.67157288 0.671572875,6 1.5,6 C2.32842712,6 3,6.67157288 3,7.5 C3,8.32842712 2.32842712,9 1.5,9 Z" id="Oval"></path>
        </g>
        <g id="clock-copy" transform="translate(300.000000, 100.000000)" fill="#C82228" fill-rule="nonzero">
            <path d="M5,10 C2.23857625,10 0,7.76142375 0,5 C0,2.23857625 2.23857625,0 5,0 C7.76142375,0 10,2.23857625 10,5 C10,7.76142375 7.76142375,10 5,10 Z M5,9 C7.209139,9 9,7.209139 9,5 C9,2.790861 7.209139,1 5,1 C2.790861,1 1,2.790861 1,5 C1,7.209139 2.790861,9 5,9 Z" id="Oval"></path>
            <path d="M4.99996349,5.19091311 L6.72350736,6.05269763 C6.9704876,6.17618955 7.07059611,6.47651949 6.947106,6.72350333 C6.82361588,6.97048716 6.52329033,7.07059715 6.2763101,6.94710523 L4.27638311,5.94712713 C4.10699728,5.86243298 4,5.68930521 4,5.49992333 L4,2.49998905 C4,2.22385272 4.22384945,2 4.49998175,2 C4.77611404,2 4.99996349,2.22385272 4.99996349,2.49998905 L4.99996349,5.19091311 Z" id="Shape"></path>
        </g>
        <path d="M409.545455,111.086406 L410.94408,106.778641 C411.036885,106.492801 411.297434,106.3 411.590909,106.3 L414.318182,106.3 C414.69474,106.3 415,106.613401 415,107 C415,107.386599 414.69474,107.7 414.318182,107.7 L412.082336,107.7 L410.192284,113.521359 C409.98508,114.159547 409.105829,114.159547 408.898625,113.521359 L405.454545,102.913594 L404.05592,107.221359 C403.963115,107.507199 403.702566,107.7 403.409091,107.7 L400.681818,107.7 C400.30526,107.7 400,107.386599 400,107 C400,106.613401 400.30526,106.3 400.681818,106.3 L402.917664,106.3 L404.807716,100.478641 C405.01492,99.8404531 405.894171,99.8404531 406.101375,100.478641 L409.545455,111.086406 Z" id="Shape-Copy" fill="#C82228" fill-rule="nonzero"></path>
        <g id="play-circle" transform="translate(400.000000, 200.000000)" fill="#FFFFFF" fill-rule="nonzero">
            <path d="M17.5,35 C7.83501688,35 0,27.1649831 0,17.5 C0,7.83501688 7.83501688,0 17.5,0 C27.1649831,0 35,7.83501688 35,17.5 C35,27.1649831 27.1649831,35 17.5,35 Z M17.5,31.8181818 C25.4077135,31.8181818 31.8181818,25.4077135 31.8181818,17.5 C31.8181818,9.59228654 25.4077135,3.18181818 17.5,3.18181818 C9.59228654,3.18181818 3.18181818,9.59228654 3.18181818,17.5 C3.18181818,25.4077135 9.59228654,31.8181818 17.5,31.8181818 Z" id="Oval"></path>
            <path d="M16.25,14.5907738 L16.25,21.4092262 L21.4454896,18 L16.25,14.5907738 Z M15.5263878,10.2713186 L25.2763878,16.6691671 C26.2412041,17.3022694 26.2412041,18.6977306 25.2763878,19.3308329 L15.5263878,25.7286814 C14.4464864,26.4373015 13,25.6753315 13,24.3978485 L13,11.6021515 C13,10.3246685 14.4464864,9.56269848 15.5263878,10.2713186 Z" id="Shape"></path>
        </g>
    </g>
</svg>